<svg width="28" height="28" viewBox="0 0 28 28" fill="none" xmlns="http://www.w3.org/2000/svg">
<rect width="28" height="28" rx="14" fill="#0047FF"/>
<path d="M7 17.8891C7 18.3186 7.34822 18.6668 7.77778 18.6668H20.2222C20.6518 18.6668 21 18.3186 21 17.8891C21 17.4595 20.6518 17.1113 20.2222 17.1113H7.77778C7.34822 17.1113 7 17.4595 7 17.8891ZM7 14.0002C7 14.4297 7.34822 14.7779 7.77778 14.7779H20.2222C20.6518 14.7779 21 14.4297 21 14.0002C21 13.5706 20.6518 13.2224 20.2222 13.2224H7.77778C7.34822 13.2224 7 13.5706 7 14.0002ZM7.77778 9.3335C7.34822 9.3335 7 9.68172 7 10.1113C7 10.5408 7.34822 10.8891 7.77778 10.8891H20.2222C20.6518 10.8891 21 10.5408 21 10.1113C21 9.68172 20.6518 9.3335 20.2222 9.3335H7.77778Z" fill="white"/>
</svg>
